<?xml version="1.0" encoding="UTF-8"?>
<svg version="1.1" xmlns="http://www.w3.org/2000/svg" width="349" height="281">
<path d="M0 0 C2.76118847 0.17540337 3.82109172 0.82069938 5.78125 2.78515625 C6.3484375 3.53667969 6.915625 4.28820313 7.5 5.0625 C8.0671875 5.79597656 8.634375 6.52945313 9.21875 7.28515625 C13.83631612 14.32289409 15.66274039 20.08261233 16.25 28.5 C16.36601562 29.87671875 16.36601562 29.87671875 16.484375 31.28125 C16.67094443 33.52008322 16.84248743 35.75896751 17 38 C17.5775 37.34 18.155 36.68 18.75 36 C21 34 21 34 25 34 C25.82947812 36.41191425 26.63825729 38.82805239 27.4375 41.25 C27.66759766 41.91257813 27.89769531 42.57515625 28.13476562 43.2578125 C31.91917985 54.88528809 30.80301901 65.62693264 28.625 77.4375 C26.91846422 86.94318329 25.53178258 96.34270516 25 106 C25.10022461 105.31486328 25.20044922 104.62972656 25.30371094 103.92382812 C25.77174175 100.78027422 26.26069588 97.64031004 26.75 94.5 C26.90726562 93.42234375 27.06453125 92.3446875 27.2265625 91.234375 C28.37531435 83.98840182 29.74162501 75.72486589 36 71 C38.1875 71.3125 38.1875 71.3125 40 72 C40.43186442 87.00328995 40.57986102 101.01550444 32 114 C27.93325534 120.21656563 24.278443 125.89661888 22 133 C22.56847656 132.21753906 23.13695312 131.43507812 23.72265625 130.62890625 C24.49480469 129.61699219 25.26695312 128.60507813 26.0625 127.5625 C26.81660156 126.55316406 27.57070313 125.54382813 28.34765625 124.50390625 C31.57279325 121.45926292 33.64438949 121.20791776 38 121 C39.14996075 131.86074042 35.62205222 143.34979156 29 152 C26.7734375 153.90625 26.7734375 153.90625 24.375 155.5 C23.075625 156.36818359 23.075625 156.36818359 21.75 157.25390625 C17.549162 159.92119969 13.3028162 162.50070463 9 165 C9.33 165.33 9.66 165.66 10 166 C11.2684375 165.7834375 11.2684375 165.7834375 12.5625 165.5625 C16.46890511 164.92327007 20.04676665 164.9318408 24 165 C24.30859375 167.6875 24.30859375 167.6875 24 171 C20.84252891 174.87159071 16.88230729 177.8758366 13 181 C12.29488281 181.60585937 11.58976562 182.21171875 10.86328125 182.8359375 C4.95182378 187.41180045 -1.64264878 188.60489222 -8.81640625 190.04296875 C-13.0921017 190.94591688 -16.97910318 192.28056678 -21 194 C-21.33 194.66 -21.66 195.32 -22 196 C-21.08476562 196.12117187 -20.16953125 196.24234375 -19.2265625 196.3671875 C-18.03804688 196.53476563 -16.84953125 196.70234375 -15.625 196.875 C-14.44164062 197.03742188 -13.25828125 197.19984375 -12.0390625 197.3671875 C-9 198 -9 198 -7 200 C-7 204 -7 204 -8.37890625 205.703125 C-16.48571722 211.4460537 -25.00379807 210.34337811 -34.484375 210.09765625 C-50.11558757 209.70136459 -62.9899461 214.89956301 -75.22265625 224.3046875 C-78 226 -78 226 -80.24609375 225.9453125 C-82 225 -82 225 -84 222 C-83.78063976 219.59170455 -83.33963877 218.37577055 -81.71484375 216.578125 C-75.2997656 211.78444023 -68.19621393 208.48208833 -61.02636719 204.98925781 C-57.97974156 203.5019172 -54.95181969 201.98990945 -51.9375 200.4375 C-50.95652344 199.94121094 -49.97554688 199.44492188 -48.96484375 198.93359375 C-41.47407669 194.04831089 -37.92227513 188.69855593 -34.9375 180.375 C-32.62942773 173.9620336 -30.84917335 169.77489023 -25 166 C-21.125 165.6875 -21.125 165.6875 -18 166 C-17.67 166.66 -17.34 167.32 -17 168 C-16.85304688 166.94941406 -16.70609375 165.89882812 -16.5546875 164.81640625 C-14.00637022 148.28678063 -14.00637022 148.28678063 -8 143 C-6.68 143 -5.36 143 -4 143 C-2.414131 146.171738 -2.62133555 149.63513822 -2.4375 153.125 C-2.37272461 154.25615234 -2.37272461 154.25615234 -2.30664062 155.41015625 C-2.2005168 157.27321888 -2.09974999 159.13658524 -2 161 C1.16257143 153.54536735 2.29079325 145.73906537 0.4921875 137.7421875 C-0.24658803 133.62615241 -0.14396659 129.54764872 -0.125 125.375 C-0.12886719 124.51648438 -0.13273437 123.65796875 -0.13671875 122.7734375 C-0.13542969 121.9484375 -0.13414062 121.1234375 -0.1328125 120.2734375 C-0.13168457 119.52497559 -0.13055664 118.77651367 -0.12939453 118.00537109 C0 116 0 116 1 113 C3.25 112.6875 3.25 112.6875 6 113 C10.35798663 116.85993102 11.08930341 121.49987194 12 127 C13.13672808 123.58981575 12.90406634 123.08882599 11.6015625 119.91015625 C11.28703125 119.12576172 10.9725 118.34136719 10.6484375 117.53320312 C10.14183594 116.31020508 10.14183594 116.31020508 9.625 115.0625 C8.96926811 113.45006552 8.31555037 111.83681015 7.6640625 110.22265625 C7.36967285 109.50859619 7.0752832 108.79453613 6.77197266 108.05883789 C5.09718214 103.59220019 4.86494393 99.71916032 4.875 94.9375 C4.87242187 93.70902344 4.86984375 92.48054688 4.8671875 91.21484375 C5 88 5 88 6 85 C6.99 85 7.98 85 9 85 C8.50628906 84.16855469 8.01257813 83.33710937 7.50390625 82.48046875 C6.86324219 81.39378906 6.22257812 80.30710937 5.5625 79.1875 C4.92441406 78.10855469 4.28632813 77.02960938 3.62890625 75.91796875 C0.86689236 70.97018847 0.90953647 67.51827508 1 62 C2.65 62 4.3 62 6 62 C3.74649236 59.65981898 1.56587841 57.68105353 -1.0625 55.75 C-4.62065397 52.82240496 -5.98911901 49.43232435 -7 45 C-7.1875 41.5 -7.1875 41.5 -7 39 C-3.125 38 -3.125 38 -2 38 C-2.42152344 37.33355469 -2.84304688 36.66710937 -3.27734375 35.98046875 C-7.19964597 29.38177208 -9.3293431 23.7610417 -9 16 C-8 15 -8 15 -5.625 14.6875 C-3 15 -3 15 -1.1875 17 C-0.5996875 17.99 -0.5996875 17.99 0 19 C-0.495 17.2984375 -0.495 17.2984375 -1 15.5625 C-2.11393431 11.09880609 -2.64637047 6.58162598 -2 2 C-1.34 1.34 -0.68 0.68 0 0 Z M1 20 C2 22 2 22 2 22 Z M13 91 C13.66 93.97 14.32 96.94 15 100 C15.33 100 15.66 100 16 100 C16.25015873 96.58357241 16.25015873 96.58357241 16 93 C15.01 92.34 14.02 91.68 13 91 Z M19 137 C20 139 20 139 20 139 Z M-4 163 C-3 165 -3 165 -3 165 Z " fill="#383083" transform="translate(309,33)"/>
<path d="M0 0 C2.475 0.495 2.475 0.495 5 1 C6.09367096 5.76579795 5.76635719 9.1558798 4.5625 13.875 C4.13130859 15.60363281 4.13130859 15.60363281 3.69140625 17.3671875 C3.46324219 18.23601563 3.23507813 19.10484375 3 20 C4.32 18.35 5.64 16.7 7 15 C9.475 15.495 9.475 15.495 12 16 C12.62100497 24.38356714 9.74990266 30.6353263 6 38 C7.32 38.33 8.64 38.66 10 39 C10.44906816 45.28695429 9.87979384 49.87785748 6 55 C3.15751726 57.5782933 0.16599763 59.8352153 -3 62 C-1.02 62 0.96 62 3 62 C2.58299785 70.61804434 -0.24182003 76.86273005 -5 84 C-4.01 84.66 -3.02 85.32 -2 86 C-1.59988683 88.63330297 -1.42989736 90.92145986 -1.4375 93.5625 C-1.4370166 94.31466797 -1.4365332 95.06683594 -1.43603516 95.84179688 C-1.66925745 103.91565069 -4.35248207 110.76385905 -7.31640625 118.17919922 C-8.64124917 121.70801297 -9.32763641 125.30200023 -10 129 C-9.34 129 -8.68 129 -8 129 C-7.96261719 128.41992188 -7.92523437 127.83984375 -7.88671875 127.2421875 C-7.4500162 122.05313371 -6.89250201 116.89250201 -3 113 C-1.33382885 112.95936168 0.33388095 112.957279 2 113 C5.7933499 121.00818312 4.59451229 130.49904964 2.4609375 138.86328125 C0.68939594 147.0754273 2.44783537 153.54679744 6 161 C5.98839844 159.95199219 5.97679687 158.90398437 5.96484375 157.82421875 C5.95546345 156.44531428 5.9463635 155.06640789 5.9375 153.6875 C5.92912109 152.99720703 5.92074219 152.30691406 5.91210938 151.59570312 C5.89692094 148.4516975 5.99806673 146.00579981 7 143 C10.74340107 143.10695432 11.94583544 143.94583544 14.625 146.625 C18.37242083 152.24022049 18.96334546 159.45137741 20 166 C21.60538374 166 23.21067193 165.91928854 24.8125 165.8125 C28.60977577 166.03586916 30.09038163 166.54979506 33 169 C35.16405925 172.69984323 36.74385723 176.28849231 38.1953125 180.3203125 C43.99033768 195.65229341 54.37406647 200.45349591 68.625 206.9609375 C75.6169266 210.19080386 81.47883792 213.54140066 87 219 C86.25 223.75 86.25 223.75 84 226 C79.88670683 225.74701842 76.72712124 222.93897735 73.4375 220.6875 C59.42354965 211.43290139 45.46793714 209.52450779 28.91674805 210.24902344 C21.88113131 210.43175048 16.65479511 209.21068654 11.28417969 204.49267578 C10 203 10 203 9.9375 200.9375 C11 199 11 199 13.5 197.8125 C17.65426288 196.84811755 21.7555829 196.35841744 26 196 C26 195.34 26 194.68 26 194 C21.68054495 192.42928907 17.43414061 191.05857791 12.93359375 190.12109375 C1.29574635 187.69346393 -6.16688105 184.34063166 -14.42578125 175.5234375 C-16.07614307 173.78582574 -16.07614307 173.78582574 -18.9375 172.4375 C-19.618125 171.963125 -20.29875 171.48875 -21 171 C-21.3125 167.8125 -21.3125 167.8125 -21 165 C-15.22240116 164.87963336 -9.72040011 165.1679418 -4 166 C-4.68964844 165.56429687 -5.37929688 165.12859375 -6.08984375 164.6796875 C-8.05348241 163.4352416 -10.01425462 162.18626506 -11.97265625 160.93359375 C-13.82795802 159.74859456 -15.68872981 158.57204117 -17.55859375 157.41015625 C-28.26962543 150.60061334 -31.14437456 142.70562268 -34.63671875 130.8359375 C-35.28407767 127.56433866 -35.05542369 124.3254212 -35 121 C-30.73701876 121.21861442 -28.59842402 121.44412655 -25.41796875 124.3984375 C-24.31388672 125.87183594 -24.31388672 125.87183594 -23.1875 127.375 C-22.43855469 128.35210937 -21.68960937 129.32921875 -20.91796875 130.3359375 C-19.57665325 132.19902746 -18.27342439 134.08986341 -17 136 C-19.75812914 128.84349068 -22.40470818 122.41175348 -27.125 116.3125 C-36.63477104 103.89898208 -37.83359087 88.15972236 -37 73 C-36.505 72.01 -36.505 72.01 -36 71 C-33.75 71.125 -33.75 71.125 -31 72 C-25.56219759 78.68072868 -24.53073 86.10799257 -23.375 94.375 C-23.2409375 95.30183594 -23.106875 96.22867188 -22.96875 97.18359375 C-22.64090793 99.45507098 -22.31813573 101.72714656 -22 104 C-22.31128039 95.15963704 -23.51421251 86.6943337 -25.0625 78 C-27.78734375 62.14957779 -27.17005292 50.25165613 -22 35 C-19.525 34.505 -19.525 34.505 -17 34 C-15.0549 36.91765 -14.54723683 38.62537285 -14 42 C-13.96036133 41.38592285 -13.92072266 40.7718457 -13.87988281 40.13916016 C-13.68685085 37.29967068 -13.46855977 34.46263433 -13.25 31.625 C-13.1571875 30.17673828 -13.1571875 30.17673828 -13.0625 28.69921875 C-12.31064545 19.36369147 -9.9290053 11.58383952 -3.75 4.375 C-2.69039062 3.11816406 -2.69039062 3.11816406 -1.609375 1.8359375 C-1.07828125 1.23007812 -0.5471875 0.62421875 0 0 Z M1 21 C2 23 2 23 2 23 Z M-10 89 C-9 91 -9 91 -9 91 Z M-11 91 C-13.4294516 94.6441774 -13.16179575 96.71241272 -13 101 C-11.11608215 97.73454239 -10.50712033 94.71888239 -10 91 C-10.33 91 -10.66 91 -11 91 Z " fill="#383184" transform="translate(37,33)"/>
<path d="M0 0 C8.5663841 7.89535068 14.00602881 18.33079124 14.9921875 30.015625 C15.28951975 43.79201906 12.51751583 54.16685157 3.65625 65.03515625 C2.90601563 65.99035156 2.90601563 65.99035156 2.140625 66.96484375 C-4.95360294 75.02646641 -16.76800958 80.11228575 -27.3605957 81.25219727 C-42.27509653 82.12740656 -55.49786406 79.01777692 -67.3046875 69.4453125 C-76.24421009 61.14990399 -81.77174114 49.50818099 -82.50390625 37.3828125 C-82.8815323 24.62561932 -79.51954708 13.67640495 -71.21875 3.97265625 C-51.73012397 -16.69036581 -21.70287717 -18.19424536 0 0 Z M-64.34375 2.03515625 C-63.02375 3.35515625 -61.70375 4.67515625 -60.34375 6.03515625 C-58.24458238 4.9999503 -56.17054931 3.94035166 -54.1171875 2.81640625 C-48.27604094 -0.30394566 -42.89530564 -2.03089858 -36.34375 -2.96484375 C-36.34375 -4.94484375 -36.34375 -6.92484375 -36.34375 -8.96484375 C-46.9276037 -8.96484375 -55.9311969 -3.96658504 -64.34375 2.03515625 Z M-31.34375 -8.96484375 C-31.01375 -7.64484375 -30.68375 -6.32484375 -30.34375 -4.96484375 C-26.87875 -5.45984375 -26.87875 -5.45984375 -23.34375 -5.96484375 C-23.34375 -4.97484375 -23.34375 -3.98484375 -23.34375 -2.96484375 C-24.33375 -2.46984375 -24.33375 -2.46984375 -25.34375 -1.96484375 C-23.59739835 -1.4319054 -21.84647348 -0.91393712 -20.09375 -0.40234375 C-19.11921875 -0.11230469 -18.1446875 0.17773438 -17.140625 0.4765625 C-14.38131068 1.02765461 -12.9524676 0.97305234 -10.34375 0.03515625 C-9.35375 1.68515625 -8.36375 3.33515625 -7.34375 5.03515625 C-6.35375 4.37515625 -5.36375 3.71515625 -4.34375 3.03515625 C-4.34375 2.37515625 -4.34375 1.71515625 -4.34375 1.03515625 C-11.78580285 -4.84456948 -21.83712653 -8.96484375 -31.34375 -8.96484375 Z M-56.34375 8.03515625 C-55.68375 9.35515625 -55.02375 10.67515625 -54.34375 12.03515625 C-50.3157921 11.1421217 -46.67173013 9.56716644 -42.87890625 7.97265625 C-40.37319202 7.0460439 -37.97265004 6.48663103 -35.34375 6.03515625 C-35.67375 4.38515625 -36.00375 2.73515625 -36.34375 1.03515625 C-43.72461103 0.25822351 -50.68034088 3.48094016 -56.34375 8.03515625 Z M-31.34375 1.03515625 C-31.67375 2.68515625 -32.00375 4.33515625 -32.34375 6.03515625 C-28.05375 7.02515625 -23.76375 8.01515625 -19.34375 9.03515625 C-19.34375 8.37515625 -19.34375 7.71515625 -19.34375 7.03515625 C-18.68375 7.03515625 -18.02375 7.03515625 -17.34375 7.03515625 C-17.92319932 5.03651869 -17.92319932 5.03651869 -19.34375 3.03515625 C-23.42288567 1.18100367 -26.8965765 0.82338608 -31.34375 1.03515625 Z M-1.34375 5.03515625 C-2.33375 6.02515625 -3.32375 7.01515625 -4.34375 8.03515625 C-3.13466368 11.57625498 -3.13466368 11.57625498 -0.85620117 14.46606445 C0.84814598 16.23423865 1.35109734 17.49072158 2.04296875 19.828125 C2.25888672 20.54033203 2.47480469 21.25253906 2.69726562 21.98632812 C3.01727539 23.09331055 3.01727539 23.09331055 3.34375 24.22265625 C3.56869141 24.97224609 3.79363281 25.72183594 4.02539062 26.49414062 C4.57755633 28.33860904 5.11805221 30.18656385 5.65625 32.03515625 C7.63625 32.03515625 9.61625 32.03515625 11.65625 32.03515625 C10.35967098 21.93078184 6.71146805 11.66886523 -1.34375 5.03515625 Z M-67.34375 6.03515625 C-73.70947134 12.73591556 -78.12765266 21.0924794 -78.46875 30.47265625 C-78.4275 31.31828125 -78.38625 32.16390625 -78.34375 33.03515625 C-76.36375 33.03515625 -74.38375 33.03515625 -72.34375 33.03515625 C-72.19679687 32.21273437 -72.04984375 31.3903125 -71.8984375 30.54296875 C-70.46591204 23.41327306 -68.63290023 18.06887673 -64.35546875 12.15625 C-64.02160156 11.45628906 -63.68773437 10.75632812 -63.34375 10.03515625 C-64.06804745 7.76646575 -64.06804745 7.76646575 -65.34375 6.03515625 C-66.00375 6.03515625 -66.66375 6.03515625 -67.34375 6.03515625 Z M-45.59375 12.53515625 C-46.48578125 12.99921875 -47.3778125 13.46328125 -48.296875 13.94140625 C-48.97234375 14.30234375 -49.6478125 14.66328125 -50.34375 15.03515625 C-49.35375 16.35515625 -48.36375 17.67515625 -47.34375 19.03515625 C-46.663125 18.74640625 -45.9825 18.45765625 -45.28125 18.16015625 C-42.01481907 16.9091827 -38.71528877 15.9606767 -35.34375 15.03515625 C-35.67375 13.38515625 -36.00375 11.73515625 -36.34375 10.03515625 C-40.50786215 10.03515625 -42.00767253 10.64774706 -45.59375 12.53515625 Z M-31.34375 10.03515625 C-31.34375 11.68515625 -31.34375 13.33515625 -31.34375 15.03515625 C-27.71375 16.35515625 -24.08375 17.67515625 -20.34375 19.03515625 C-19.35375 17.71515625 -18.36375 16.39515625 -17.34375 15.03515625 C-18.73157485 14.18855285 -20.12944397 13.35840286 -21.53125 12.53515625 C-22.30855469 12.07109375 -23.08585937 11.60703125 -23.88671875 11.12890625 C-26.58478386 9.92785978 -28.4244482 9.82774582 -31.34375 10.03515625 Z M-13.34375 11.03515625 C-12.34375 13.03515625 -12.34375 13.03515625 -12.34375 13.03515625 Z M-60.34375 12.03515625 C-65.50057976 18.64390895 -67.76224158 24.83628365 -69.34375 33.03515625 C-67.36375 33.03515625 -65.38375 33.03515625 -63.34375 33.03515625 C-63.17359375 32.40609375 -63.0034375 31.77703125 -62.828125 31.12890625 C-61.19804647 25.3716076 -59.17455597 20.30631219 -56.34375 15.03515625 C-57.66375 14.04515625 -58.98375 13.05515625 -60.34375 12.03515625 Z M-12.34375 13.03515625 C-11.34375 15.03515625 -11.34375 15.03515625 -11.34375 15.03515625 Z M-11.34375 15.03515625 C-10.35375 16.52015625 -10.35375 16.52015625 -9.34375 18.03515625 C-8.68375 17.70515625 -8.02375 17.37515625 -7.34375 17.03515625 C-8.66375 16.37515625 -9.98375 15.71515625 -11.34375 15.03515625 Z M-7.34375 18.03515625 C-6.35375 22.65515625 -5.36375 27.27515625 -4.34375 32.03515625 C-2.36375 32.03515625 -0.38375 32.03515625 1.65625 32.03515625 C0.86892856 25.09020461 0.86892856 25.09020461 -2.84375 19.41015625 C-5.16029229 17.87451667 -5.16029229 17.87451667 -7.34375 18.03515625 Z M-54.34375 19.03515625 C-55.21258706 20.61048711 -56.06334068 22.19580134 -56.90625 23.78515625 C-57.38191406 24.666875 -57.85757813 25.54859375 -58.34765625 26.45703125 C-59.42373186 29.24216813 -59.40903748 30.30495839 -58.34375 33.03515625 C-58.055 32.23078125 -57.76625 31.42640625 -57.46875 30.59765625 C-56.34375 28.03515625 -56.34375 28.03515625 -54.34375 27.03515625 C-54.34375 26.37515625 -54.34375 25.71515625 -54.34375 25.03515625 C-52.69375 24.37515625 -51.04375 23.71515625 -49.34375 23.03515625 C-50.00375 21.71515625 -50.66375 20.39515625 -51.34375 19.03515625 C-52.33375 19.03515625 -53.32375 19.03515625 -54.34375 19.03515625 Z M-43.34375 22.03515625 C-43.01375 22.69515625 -42.68375 23.35515625 -42.34375 24.03515625 C-39.95810923 23.45931193 -37.67692216 22.8128803 -35.34375 22.03515625 C-35.34375 21.04515625 -35.34375 20.05515625 -35.34375 19.03515625 C-38.91950896 19.03515625 -40.39670935 20.12356232 -43.34375 22.03515625 Z M-31.34375 19.03515625 C-31.34375 20.02515625 -31.34375 21.01515625 -31.34375 22.03515625 C-30.02375 21.70515625 -28.70375 21.37515625 -27.34375 21.03515625 C-27.01375 22.35515625 -26.68375 23.67515625 -26.34375 25.03515625 C-25.68375 24.70515625 -25.02375 24.37515625 -24.34375 24.03515625 C-24.34375 23.04515625 -24.34375 22.05515625 -24.34375 21.03515625 C-26.99113916 19.57452775 -28.23823334 19.03515625 -31.34375 19.03515625 Z M-15.34375 19.03515625 C-16.33375 20.52015625 -16.33375 20.52015625 -17.34375 22.03515625 C-14.86875 23.02515625 -14.86875 23.02515625 -12.34375 24.03515625 C-12.67375 22.38515625 -13.00375 20.73515625 -13.34375 19.03515625 C-14.00375 19.03515625 -14.66375 19.03515625 -15.34375 19.03515625 Z M-35.34375 29.03515625 C-37.66886472 30.29867677 -37.66886472 30.29867677 -39.34375 32.03515625 C-39.01375 33.02515625 -38.68375 34.01515625 -38.34375 35.03515625 C-36.32866642 35.76839421 -36.32866642 35.76839421 -34.34375 36.03515625 C-34.67375 37.68515625 -35.00375 39.33515625 -35.34375 41.03515625 C-34.35375 41.03515625 -33.36375 41.03515625 -32.34375 41.03515625 C-32.34375 40.37515625 -32.34375 39.71515625 -32.34375 39.03515625 C-31.35375 39.03515625 -30.36375 39.03515625 -29.34375 39.03515625 C-29.67375 36.39515625 -30.00375 33.75515625 -30.34375 31.03515625 C-32.60976865 29.74472862 -32.60976865 29.74472862 -35.34375 29.03515625 Z M-54.34375 33.03515625 C-53.34375 36.03515625 -53.34375 36.03515625 -53.34375 36.03515625 Z M-78.34375 36.03515625 C-78.01375 39.33515625 -77.68375 42.63515625 -77.34375 46.03515625 C-77.01375 45.37515625 -76.68375 44.71515625 -76.34375 44.03515625 C-73.78125 43.41015625 -73.78125 43.41015625 -71.34375 43.03515625 C-71.67375 40.72515625 -72.00375 38.41515625 -72.34375 36.03515625 C-74.32375 36.03515625 -76.30375 36.03515625 -78.34375 36.03515625 Z M-68.34375 36.03515625 C-68.34375 38.01515625 -68.34375 39.99515625 -68.34375 42.03515625 C-66.6362502 40.7545314 -64.97001404 39.41748068 -63.34375 38.03515625 C-63.34375 37.37515625 -63.34375 36.71515625 -63.34375 36.03515625 C-64.99375 36.03515625 -66.64375 36.03515625 -68.34375 36.03515625 Z M-9.34375 36.03515625 C-9.01375 36.69515625 -8.68375 37.35515625 -8.34375 38.03515625 C-8.01375 37.37515625 -7.68375 36.71515625 -7.34375 36.03515625 C-8.00375 36.03515625 -8.66375 36.03515625 -9.34375 36.03515625 Z M-4.34375 36.03515625 C-4.01375 38.01515625 -3.68375 39.99515625 -3.34375 42.03515625 C-4.00375 42.03515625 -4.66375 42.03515625 -5.34375 42.03515625 C-6.99375 45.66515625 -8.64375 49.29515625 -10.34375 53.03515625 C-9.68375 53.03515625 -9.02375 53.03515625 -8.34375 53.03515625 C-8.01375 54.02515625 -7.68375 55.01515625 -7.34375 56.03515625 C-2.0316627 51.75597481 -0.08208293 46.55147689 1.65625 40.03515625 C1.65625 38.71515625 1.65625 37.39515625 1.65625 36.03515625 C-0.32375 36.03515625 -2.30375 36.03515625 -4.34375 36.03515625 Z M5.65625 36.03515625 C5.35332031 37.09734375 5.05039063 38.15953125 4.73828125 39.25390625 C2.50414086 46.86346932 0.38467572 53.55045812 -4.34375 60.03515625 C-3.35375 61.02515625 -2.36375 62.01515625 -1.34375 63.03515625 C3.66762439 61.36469812 5.27287428 56.53418604 7.65625 52.03515625 C10.14543047 46.76114553 11.13890235 41.82944994 11.65625 36.03515625 C9.67625 36.03515625 7.69625 36.03515625 5.65625 36.03515625 Z M-57.34375 38.03515625 C-56.34375 40.03515625 -56.34375 40.03515625 -56.34375 40.03515625 Z M-54.34375 40.03515625 C-54.67375 40.36515625 -55.00375 40.69515625 -55.34375 41.03515625 C-55.2419129 42.94940082 -55.2419129 42.94940082 -54.90625 45.09765625 C-54.720625 46.39703125 -54.535 47.69640625 -54.34375 49.03515625 C-53.35375 49.03515625 -52.36375 49.03515625 -51.34375 49.03515625 C-50.55018199 47.28844037 -50.55018199 47.28844037 -50.34375 45.03515625 C-51.62559562 42.28683471 -51.62559562 42.28683471 -53.34375 40.03515625 C-53.67375 40.03515625 -54.00375 40.03515625 -54.34375 40.03515625 Z M-48.34375 40.03515625 C-47.34375 42.03515625 -47.34375 42.03515625 -47.34375 42.03515625 Z M-13.34375 43.03515625 C-14.64008621 44.1016074 -14.64008621 44.1016074 -14.40625 46.59765625 C-14.385625 47.40203125 -14.365 48.20640625 -14.34375 49.03515625 C-13.35375 48.70515625 -12.36375 48.37515625 -11.34375 48.03515625 C-10.12505071 45.53068109 -10.12505071 45.53068109 -9.34375 43.03515625 C-10.66375 43.03515625 -11.98375 43.03515625 -13.34375 43.03515625 Z M-41.34375 44.03515625 C-42.33375 45.52015625 -42.33375 45.52015625 -43.34375 47.03515625 C-40.08977492 49.29400949 -40.08977492 49.29400949 -36.34375 50.03515625 C-36.01375 48.38515625 -35.68375 46.73515625 -35.34375 45.03515625 C-38.31375 44.54015625 -38.31375 44.54015625 -41.34375 44.03515625 Z M-47.34375 50.03515625 C-48.82875 52.01515625 -48.82875 52.01515625 -50.34375 54.03515625 C-49.23 54.69515625 -48.11625 55.35515625 -46.96875 56.03515625 C-46.34226562 56.40640625 -45.71578125 56.77765625 -45.0703125 57.16015625 C-43.36902333 58.18583973 -43.36902333 58.18583973 -41.34375 58.03515625 C-41.01375 56.38515625 -40.68375 54.73515625 -40.34375 53.03515625 C-42.65375 52.04515625 -44.96375 51.05515625 -47.34375 50.03515625 Z M-32.34375 50.03515625 C-30.36375 51.02515625 -30.36375 51.02515625 -28.34375 52.03515625 C-28.01375 51.37515625 -27.68375 50.71515625 -27.34375 50.03515625 C-28.99375 50.03515625 -30.64375 50.03515625 -32.34375 50.03515625 Z M-74.34375 52.03515625 C-72.21168788 56.7075477 -70.31872544 60.62803444 -66.34375 64.03515625 C-65.35375 63.04515625 -64.36375 62.05515625 -63.34375 61.03515625 C-64.93606949 56.73589362 -67.73688359 54.68509892 -71.34375 52.03515625 C-72.33375 52.03515625 -73.32375 52.03515625 -74.34375 52.03515625 Z M-54.34375 60.03515625 C-53.21817123 63.41189257 -52.90875561 63.62567652 -49.90625 65.16015625 C-45.17637306 67.40920844 -40.52508104 67.82280662 -35.34375 68.03515625 C-35.34375 66.38515625 -35.34375 64.73515625 -35.34375 63.03515625 C-35.92382812 62.91398437 -36.50390625 62.7928125 -37.1015625 62.66796875 C-40.72055254 61.89161775 -44.16520249 61.09916385 -47.65625 59.84765625 C-50.4390557 59.0063429 -51.67116973 59.00724076 -54.34375 60.03515625 Z M-61.34375 63.03515625 C-62.00375 64.35515625 -62.66375 65.67515625 -63.34375 67.03515625 C-54.48074708 73.45762214 -46.33908005 77.32578012 -35.34375 78.03515625 C-35.34375 76.05515625 -35.34375 74.07515625 -35.34375 72.03515625 C-36.17777344 71.87660156 -37.01179688 71.71804687 -37.87109375 71.5546875 C-44.36864185 70.20754408 -49.81567673 68.68441571 -55.44140625 65.12109375 C-57.40611185 63.9995575 -59.13520359 63.47784929 -61.34375 63.03515625 Z M-11.78125 65.28515625 C-12.4 65.73632812 -13.01875 66.1875 -13.65625 66.65234375 C-15.50902291 68.07718506 -15.50902291 68.07718506 -17.28125 70.41015625 C-19.34375 72.03515625 -19.34375 72.03515625 -21.22265625 72.0234375 C-22.63227958 71.82354616 -24.03792382 71.59314621 -25.4375 71.33203125 C-27.64052768 70.98893678 -29.26034495 71.25387935 -31.34375 72.03515625 C-31.34375 74.01515625 -31.34375 75.99515625 -31.34375 78.03515625 C-20.55685888 76.50281284 -12.37531497 73.03979345 -3.34375 67.03515625 C-4.00375 65.71515625 -4.66375 64.39515625 -5.34375 63.03515625 C-8.6433458 63.03515625 -9.23558905 63.40284125 -11.78125 65.28515625 Z M-31.34375 64.03515625 C-31.34375 65.35515625 -31.34375 66.67515625 -31.34375 68.03515625 C-30.68375 67.70515625 -30.02375 67.37515625 -29.34375 67.03515625 C-30.00375 66.04515625 -30.66375 65.05515625 -31.34375 64.03515625 Z " fill="#383082" transform="translate(206.34375,12.96484375)"/>
<path d="M0 0 C3.3529984 1.17808052 5.7552529 2.19406612 8 5 C9.90912898 10.72738693 9.90288045 16.78383889 7.625 22.375 C-1.0101054 31.0101054 -14.22798679 32.42478339 -25.68505859 34.90136719 C-45.70204159 39.21311968 -45.70204159 39.21311968 -61 52 C-63.66906956 57.70210316 -63.11779164 62.82121424 -61.04296875 68.62890625 C-58.79020364 73.87987539 -58.79020364 73.87987539 -55 78 C-49.2835567 79.57479688 -45.78905347 78.45855734 -40.75 75.75 C-25.99352951 68.40441181 -10.70859672 65.79316606 5.3203125 70.63671875 C13.20771437 73.55890904 20.18689058 78.30746622 24 86 C26.08235699 91.21640944 26.82743616 96.6036885 25 102 C22.55511898 106.24982674 20.25496132 108.58928539 15.5625 110.125 C8.51402018 109.87768492 4.05537674 106.53489479 -1.30078125 102.3046875 C-2.97623663 100.93271646 -2.97623663 100.93271646 -5 100 C-5.495 101.98 -5.495 101.98 -6 104 C-9.46941546 103.54177532 -12.67395049 103.10868317 -16 102 C-15.67 103.65 -15.34 105.3 -15 107 C-14.071875 107 -13.14375 107 -12.1875 107 C-10.125 107 -8.0625 107 -6 107 C-7 110 -7 110 -8.671875 110.87109375 C-12.54256853 111.92607601 -14.24735402 112.38432986 -17.9375 110.5 C-20.41503682 107.49692507 -21 105.88528445 -21 102 C-19.67415408 98.56839879 -18.63867954 97.33454643 -15.375 95.625 C-7.7992054 94.22207507 -2.34319322 95.81619171 4 100 C4.020625 98.906875 4.04125 97.81375 4.0625 96.6875 C5 93 5 93 8.25 90.9375 C12 90 12 90 14.875 90.5625 C17 92 17 92 17.8125 94.125 C17.9053125 95.053125 17.9053125 95.053125 18 96 C16.3125 96.6875 16.3125 96.6875 14 97 C11.25 95.5625 11.25 95.5625 9 94 C7.53465615 97.80989402 8.44796089 100.3241179 10 104 C10.66 104.33 11.32 104.66 12 105 C11.95875 104.21625 11.9175 103.4325 11.875 102.625 C12 100 12 100 14 98 C16.32275177 97.59952556 18.65739357 97.2602896 21 97 C20.74220026 93.21893711 20.47578037 91.47578037 17.75 88.75 C6.7144532 81.72737931 -6.76952492 83.51481214 -19 86 C-26.04465245 87.75340469 -31.34828288 89.38635337 -37 94 C-44.73490758 94.35158671 -51.57508975 87.51684307 -57.1875 82.875 C-65.58135702 75.10774506 -69.21325973 65.11592528 -70.1796875 53.91796875 C-70.51253223 44.54284208 -68.02131352 37.16048095 -62 30 C-56.92557145 24.67923997 -50.52354676 22.43918184 -43.72314453 20.09106445 C-39.83152477 18.74657533 -36.46312222 17.21902995 -33 15 C-29.58823529 12.90196078 -29.58823529 12.90196078 -26.9140625 13.34765625 C-26.15867188 13.58355469 -25.40328125 13.81945312 -24.625 14.0625 C-17.05755941 15.81661699 -9.03284927 14.01366619 -2.14453125 10.57421875 C0.28465513 9.10875257 0.28465513 9.10875257 1 6 C0.72428861 3.99124558 0.39764263 1.98821313 0 0 Z " fill="#ED7C1A" transform="translate(125,102)"/>
<path d="M0 0 C-0.33 2.31 -0.66 4.62 -1 7 C6.90592094 12.64400896 14.32444809 14.62422916 24 14 C25.19625 13.566875 26.3925 13.13375 27.625 12.6875 C28.73875 12.460625 29.8525 12.23375 31 12 C32.45999012 13.22250941 33.91613987 14.45051627 35.3359375 15.71948242 C38.01321856 17.77968477 40.95905778 18.43139722 44.1875 19.3125 C52.91785168 21.95358763 60.67667767 26.19429335 66.0625 33.8125 C71.16430969 43.34824611 70.95817747 54.94002385 68.12890625 65.140625 C63.74771139 76.96530317 55.42690373 84.37496369 45 91 C44.01 91.66 43.02 92.32 42 93 C39.39121197 93.52175761 37.71206243 93.44349298 35.42578125 92.01953125 C34.83152344 91.60058594 34.23726563 91.18164062 33.625 90.75 C24.00507562 84.50860729 13.22118861 83.63805871 2.0625 83.5625 C1.09175537 83.5524292 0.12101074 83.5423584 -0.87915039 83.53198242 C-7.31851877 83.61015297 -13.48697207 84.12067869 -18.67553711 88.37329102 C-20.77555714 90.95254142 -20.69548512 93.77214224 -21 97 C-19.88625 96.95875 -18.7725 96.9175 -17.625 96.875 C-14 97 -14 97 -12 99 C-11.875 101.625 -11.875 101.625 -12 104 C-10.515 103.01 -10.515 103.01 -9 102 C-8.74984127 98.41642759 -8.74984127 98.41642759 -9 95 C-9.66 94.67 -10.32 94.34 -11 94 C-12.485 94.99 -12.485 94.99 -14 96 C-16.1875 95.625 -16.1875 95.625 -18 95 C-17.625 93.0625 -17.625 93.0625 -17 91 C-13.90826248 89.45413124 -11.40570448 89.70640479 -8 90 C-5.5625 91.6875 -5.5625 91.6875 -4 94 C-3.75 96.75 -3.75 96.75 -4 99 C-3.01 98.360625 -2.02 97.72125 -1 97.0625 C4.05599605 94.19232851 8.54030159 93.44308715 14.3125 94.75 C18.40898058 96.65533981 18.40898058 96.65533981 20 99 C20.9375 101.875 20.9375 101.875 21 105 C19.33274652 107.77875579 18.04093957 109.47953021 15.125 110.9375 C12.13414942 111.02546619 9.76611518 110.06872632 7 109 C7 108.01 7 107.02 7 106 C7.928125 106.20625 8.85625 106.4125 9.8125 106.625 C13.15173402 107.36692966 13.15173402 107.36692966 16 105 C16 103.68 16 102.36 16 101 C15.4225 101.309375 14.845 101.61875 14.25 101.9375 C12.10046993 102.95255587 10.35645632 103.69594112 8 104 C7.01 103.34 6.02 102.68 5 102 C5 101.34 5 100.68 5 100 C3.64551302 100.74942137 2.29143078 101.49957426 0.9375 102.25 C0.1125 102.70117188 -0.7125 103.15234375 -1.5625 103.6171875 C-3.93942246 104.92547851 -3.93942246 104.92547851 -5.875 106.2578125 C-9.82065127 108.86997977 -12.59572801 109.54286561 -17.140625 108.6796875 C-20.98573811 107.27412094 -23.04251836 104.36783091 -25.3125 101.125 C-27.30685884 94.96061814 -25.63766842 89.60791241 -23 84 C-18.85209475 76.02325913 -11.16752336 72.08095709 -3 69 C13.11625039 65.20297766 27.19636517 67.98861503 41.74804688 75.39404297 C46.52718319 77.73927977 49.6767115 78.64347529 55 77 C59.67288662 72.83895086 62.03073771 66.56723869 62.9375 60.484375 C63.06510796 55.4119585 61.78929167 51.28862887 58.65625 47.28125 C49.12215688 38.12104288 34.47364222 36.24541283 22.12109375 33.4296875 C-1.42028025 28.01627093 -1.42028025 28.01627093 -7.5625 21.125 C-9.90637396 16.02962182 -10.59283939 12.09101816 -8.8125 6.75 C-6.93216682 2.31962594 -5.03049648 0 0 0 Z " fill="#ED7C1A" transform="translate(227,103)"/>
<path d="M0 0 C3.20210576 1.16748485 5.26470581 2.83532318 7.89453125 5.00390625 C12.6164617 8.76969664 17.43300061 11.50661003 22.89453125 14.06640625 C31.19681637 18.02875021 37.41521751 22.35734034 40.921875 31.22265625 C42.8908138 39.33142197 42.91654467 48.49873848 38.8984375 55.9609375 C34.50343566 62.57300258 29.47465954 66.96266202 22.87890625 71.33984375 C20.9201766 72.70562463 19.34083357 74.02933713 17.70703125 75.75390625 C15.68377719 77.83666778 14.33291565 79.05402419 11.58203125 79.94140625 C11.04707031 79.79445313 10.51210937 79.6475 9.9609375 79.49609375 C-1.57225745 76.80690872 -15.66350689 78.6328048 -26.04296875 84.12890625 C-29.02017302 86.14253403 -30.02262046 87.7828985 -30.91796875 91.25390625 C-31.08296875 92.47078125 -31.24796875 93.68765625 -31.41796875 94.94140625 C-34.41796875 93.94140625 -34.41796875 93.94140625 -36.10546875 91.44140625 C-37.73973619 87.08335973 -38.13875813 83.53954539 -37.41796875 78.94140625 C-33.85258223 71.36495989 -27.11429147 67.37435676 -19.54296875 64.44140625 C-11.49495286 61.72966959 -3.219001 59.94446086 5.07958984 58.171875 C18.84442081 55.2614406 18.84442081 55.2614406 30.58203125 47.94140625 C31.24203125 47.94140625 31.90203125 47.94140625 32.58203125 47.94140625 C35.04274681 42.09720679 36.07231527 35.67671041 33.671875 29.66015625 C30.30048962 23.84966568 26.29124656 20.92232903 19.95703125 18.62890625 C8.47331084 16.26715998 -2.05341033 20.41366752 -12.41796875 24.94140625 C-15.52529698 27.0129584 -16.02707877 27.76172859 -17.48046875 31.00390625 C-19.20560002 34.83522189 -19.20560002 34.83522189 -21.41796875 35.94140625 C-28.53496654 36.51535768 -28.53496654 36.51535768 -31.91796875 34.31640625 C-33.82937611 31.29001127 -33.8768947 29.45983856 -33.41796875 25.94140625 C-31.41796875 23.94140625 -31.41796875 23.94140625 -28.91796875 23.69140625 C-26.41796875 23.94140625 -26.41796875 23.94140625 -24.41796875 25.94140625 C-24.79296875 28.56640625 -24.79296875 28.56640625 -25.41796875 30.94140625 C-26.40796875 31.27140625 -27.39796875 31.60140625 -28.41796875 31.94140625 C-26.41842129 31.98394981 -24.41755239 31.98221408 -22.41796875 31.94140625 C-21.06351508 30.79853239 -21.06351508 30.79853239 -21.10546875 27.75390625 C-21.47526785 23.24235718 -22.56605437 21.40995076 -25.41796875 17.94140625 C-26.32546875 17.21953125 -27.23296875 16.49765625 -28.16796875 15.75390625 C-29.28171875 14.85671875 -29.28171875 14.85671875 -30.41796875 13.94140625 C-30.41796875 12.95140625 -30.41796875 11.96140625 -30.41796875 10.94140625 C-29.71188477 10.71477295 -29.00580078 10.48813965 -28.27832031 10.25463867 C-25.07225112 9.22065236 -21.87013237 8.17492194 -18.66796875 7.12890625 C-17.55679688 6.77248047 -16.445625 6.41605469 -15.30078125 6.04882812 C-14.23085937 5.69755859 -13.1609375 5.34628906 -12.05859375 4.984375 C-10.58181152 4.5052063 -10.58181152 4.5052063 -9.07519531 4.01635742 C-5.6976521 2.65001024 -3.64816915 -0.08840475 0 0 Z M-30.41796875 27.94140625 C-30.08796875 28.93140625 -29.75796875 29.92140625 -29.41796875 30.94140625 C-29.08796875 29.95140625 -28.75796875 28.96140625 -28.41796875 27.94140625 C-29.07796875 27.94140625 -29.73796875 27.94140625 -30.41796875 27.94140625 Z " fill="#ED7D1A" transform="translate(102.41796875,80.05859375)"/>
<path d="M0 0 C1.25683594 0.67289062 1.25683594 0.67289062 2.5390625 1.359375 C11.09334067 5.10744919 19.52457979 7.97240399 28.5390625 10.359375 C26.94045888 14.79253968 24.91358461 17.06921594 21.5390625 20.359375 C19.29356751 23.67415331 19.35957352 26.41061738 19.5390625 30.359375 C21.42222409 31.46773923 21.42222409 31.46773923 23.5390625 32.359375 C24.1990625 32.029375 24.8590625 31.699375 25.5390625 31.359375 C24.8790625 31.029375 24.2190625 30.699375 23.5390625 30.359375 C23.5390625 28.379375 23.5390625 26.399375 23.5390625 24.359375 C27.9533792 23.04701057 27.9533792 23.04701057 30.4140625 24.359375 C32.19112902 27.51860437 31.34748509 29.93912557 30.5390625 33.359375 C27.87852742 36.01991008 26.26851055 36.14421454 22.5390625 36.359375 C19.26545956 35.16325085 17.19848493 34.28856115 15.1640625 31.421875 C14.5390625 29.359375 14.5390625 29.359375 14.5390625 25.359375 C12.46054508 24.66653586 10.38157394 23.97503811 8.30078125 23.2890625 C6.4001312 22.64923971 4.50712915 21.98638704 2.62109375 21.3046875 C-7.52973145 17.70659422 -16.2277171 15.84047303 -26.37109375 20.17578125 C-31.80120363 22.93118733 -34.56200793 26.6625863 -36.4609375 32.359375 C-36.95972751 37.11014546 -36.94938169 41.14989415 -35.1484375 45.609375 C-25.41958273 55.56448221 -11.09565276 57.13549927 1.96044922 59.86572266 C14.65433965 62.53314226 26.64203582 65.26085101 34.5390625 76.359375 C36.27939717 79.84004435 36.00342743 83.55399489 35.5390625 87.359375 C34.44705425 90.25391215 33.10397099 92.66968853 31.5390625 95.359375 C30.8790625 95.359375 30.2190625 95.359375 29.5390625 95.359375 C29.53132813 94.48925781 29.53132813 94.48925781 29.5234375 93.6015625 C29.24692222 90.80875814 28.81204593 88.87659707 27.5390625 86.359375 C16.64934835 78.31851796 4.4827179 77.80224068 -8.4609375 78.359375 C-9.73195312 78.58109375 -11.00296875 78.8028125 -12.3125 79.03125 C-13.35148437 79.13953125 -14.39046875 79.2478125 -15.4609375 79.359375 C-17.7734375 76.796875 -17.7734375 76.796875 -18.95703125 75.1015625 C-20.83812039 72.92243067 -22.82652284 71.82230249 -25.3359375 70.421875 C-32.84153511 66.13296208 -37.55736291 61.02194734 -41.4609375 53.359375 C-41.81027344 52.72773438 -42.15960938 52.09609375 -42.51953125 51.4453125 C-45.49247509 44.85795976 -44.87271505 37.01588105 -42.4609375 30.359375 C-37.69201873 20.05235702 -29.43581164 15.08174223 -19.54248047 10.43212891 C-13.99143854 7.77920048 -9.50024732 4.62102647 -4.79296875 0.6328125 C-2.4609375 -0.640625 -2.4609375 -0.640625 0 0 Z M26.5390625 27.359375 C26.5390625 28.679375 26.5390625 29.999375 26.5390625 31.359375 C27.1990625 31.359375 27.8590625 31.359375 28.5390625 31.359375 C28.5390625 30.039375 28.5390625 28.719375 28.5390625 27.359375 C27.8790625 27.359375 27.2190625 27.359375 26.5390625 27.359375 Z " fill="#ED7D1A" transform="translate(251.4609375,80.640625)"/>
<path d="M0 0 C6.89773081 1.48050034 13.2493349 1.03387962 20.23242188 0.15991211 C22.02406799 -0.02778415 23.81573167 -0.21531294 25.60742188 -0.40258789 C26.80367187 -0.54696289 27.99992187 -0.69133789 29.23242188 -0.84008789 C25.64708443 4.0897511 22.13909045 7.32583508 16.23242188 9.15991211 C11.77742188 9.65491211 11.77742188 9.65491211 7.23242188 10.15991211 C7.56242187 33.25991211 7.89242187 56.35991211 8.23242188 80.15991211 C10.54242188 80.48991211 12.85242188 80.81991211 15.23242188 81.15991211 C13.18579638 83.8887461 11.33160133 86.08434681 8.60742188 88.15991211 C5.84215174 90.48856064 5.08735774 91.66244722 4.23242188 95.15991211 C4.08553761 98.16850713 4.11441829 101.15082071 4.23242188 104.15991211 C1.46977899 104.7572403 -0.92790581 105.15991211 -3.76757812 105.15991211 C-3.73277344 104.50764648 -3.69796875 103.85538086 -3.66210938 103.18334961 C-3.49304207 97.72489093 -3.55825185 93.80790188 -6.76757812 89.15991211 C-9.20664873 86.95848879 -9.20664873 86.95848879 -11.76757812 85.15991211 C-13.58007812 83.47241211 -13.58007812 83.47241211 -14.76757812 82.15991211 C-14.76757812 81.82991211 -14.76757812 81.49991211 -14.76757812 81.15991211 C-12.45757812 81.15991211 -10.14757812 81.15991211 -7.76757812 81.15991211 C-7.76757812 57.39991211 -7.76757812 33.63991211 -7.76757812 9.15991211 C-17.76079524 10.85581664 -17.76079524 10.85581664 -25.76757812 15.15991211 C-26.42757812 15.15991211 -27.08757812 15.15991211 -27.76757812 15.15991211 C-26.28452616 8.56857003 -22.42559023 3.62869394 -16.86914062 -0.12133789 C-11.10297749 -2.68407706 -5.90790294 -1.32095717 0 0 Z " fill="#EE7D1A" transform="translate(175.767578125,107.840087890625)"/>
<path d="M0 0 C1.27617187 0.02320313 2.55234375 0.04640625 3.8671875 0.0703125 C5.78917969 0.09738281 5.78917969 0.09738281 7.75 0.125 C9.23113281 0.15980469 9.23113281 0.15980469 10.7421875 0.1953125 C11.0721875 0.8553125 11.4021875 1.5153125 11.7421875 2.1953125 C13.3921875 1.8653125 15.0421875 1.5353125 16.7421875 1.1953125 C16.4121875 1.8553125 16.0821875 2.5153125 15.7421875 3.1953125 C15.6732403 4.56874081 15.65751042 5.94533352 15.6796875 7.3203125 C15.7003125 8.5990625 15.7209375 9.8778125 15.7421875 11.1953125 C17.7221875 7.5653125 19.7021875 3.9353125 21.7421875 0.1953125 C24.7121875 0.1953125 27.6821875 0.1953125 30.7421875 0.1953125 C30.4296875 3.0703125 30.4296875 3.0703125 29.7421875 6.1953125 C26.7421875 8.1953125 26.7421875 8.1953125 24.2421875 8.4453125 C21.39565221 8.99137957 21.39565221 8.99137957 19.9296875 12.2578125 C19.5378125 13.2271875 19.1459375 14.1965625 18.7421875 15.1953125 C19.3196875 15.8140625 19.8971875 16.4328125 20.4921875 17.0703125 C23.036412 20.60395764 24.20850688 23.96383295 25.51953125 28.0859375 C26.58290546 30.4735434 26.58290546 30.4735434 29.37109375 30.9921875 C30.54478516 31.09273438 30.54478516 31.09273438 31.7421875 31.1953125 C30.4930133 34.65456413 29.06690955 37.34224453 26.7421875 40.1953125 C22.96673362 39.10462582 20.27175278 38.2870034 17.7421875 35.1953125 C16.7521875 36.5153125 15.7621875 37.8353125 14.7421875 39.1953125 C14.0615625 39.0509375 13.3809375 38.9065625 12.6796875 38.7578125 C11.225625 38.479375 11.225625 38.479375 9.7421875 38.1953125 C8.6490625 37.9684375 7.5559375 37.7415625 6.4296875 37.5078125 C1.98077473 37.13078599 -1.00170625 37.92594748 -5.2578125 39.1953125 C-4.8040625 38.5971875 -4.3503125 37.9990625 -3.8828125 37.3828125 C-1.57256221 32.8511677 -1.00172442 28.19265023 -0.2578125 23.1953125 C-0.8971875 23.3809375 -1.5365625 23.5665625 -2.1953125 23.7578125 C-2.8759375 23.9021875 -3.5565625 24.0465625 -4.2578125 24.1953125 C-5.2578125 23.1953125 -5.2578125 23.1953125 -5.3203125 20.1328125 C-5.2996875 19.1634375 -5.2790625 18.1940625 -5.2578125 17.1953125 C-3.6078125 16.8653125 -1.9578125 16.5353125 -0.2578125 16.1953125 C-0.3196875 15.4321875 -0.3815625 14.6690625 -0.4453125 13.8828125 C-0.2578125 11.1953125 -0.2578125 11.1953125 1.2421875 9.3828125 C1.7371875 8.9909375 2.2321875 8.5990625 2.7421875 8.1953125 C1.75950891 6.98970066 1.75950891 6.98970066 -0.10546875 7.09765625 C-2.15625 7.13020833 -4.20703125 7.16276042 -6.2578125 7.1953125 C-5.17065654 0.3099914 -5.17065654 0.3099914 0 0 Z M6.7421875 8.1953125 C6.7421875 14.7953125 6.7421875 21.3953125 6.7421875 28.1953125 C7.0721875 28.1953125 7.4021875 28.1953125 7.7421875 28.1953125 C7.7421875 21.5953125 7.7421875 14.9953125 7.7421875 8.1953125 C7.4121875 8.1953125 7.0821875 8.1953125 6.7421875 8.1953125 Z M14.7421875 23.1953125 C13.39299218 24.84916483 12.06085022 26.5170145 10.7421875 28.1953125 C10.0821875 28.8553125 9.4221875 29.5153125 8.7421875 30.1953125 C13.1971875 31.1853125 13.1971875 31.1853125 17.7421875 32.1953125 C17.0821875 29.2253125 16.4221875 26.2553125 15.7421875 23.1953125 C15.4121875 23.1953125 15.0821875 23.1953125 14.7421875 23.1953125 Z M5.7421875 28.1953125 C5.4121875 28.8553125 5.0821875 29.5153125 4.7421875 30.1953125 C5.4021875 30.1953125 6.0621875 30.1953125 6.7421875 30.1953125 C6.4121875 29.5353125 6.0821875 28.8753125 5.7421875 28.1953125 Z " fill="#373083" transform="translate(155.2578125,228.8046875)"/>
<path d="M0 0 C3.33333333 0 6.66666667 0 10 0 C11.19625 -0.020625 12.3925 -0.04125 13.625 -0.0625 C17 0 17 0 19 1 C18.67 5.62 18.34 10.24 18 15 C16.2984375 15.4021875 16.2984375 15.4021875 14.5625 15.8125 C13.386875 16.204375 12.21125 16.59625 11 17 C10.67 17.99 10.34 18.98 10 20 C7.36 20 4.72 20 2 20 C2 18.68 2 17.36 2 16 C1.34 16 0.68 16 0 16 C0.50603992 13.83125748 0.99983813 12.00032373 2 10 C1.01 10 0.02 10 -1 10 C-0.67 8.68 -0.34 7.36 0 6 C0.66 6 1.32 6 2 6 C2 5.01 2 4.02 2 3 C1.01 3.33 0.02 3.66 -1 4 C-0.67 2.68 -0.34 1.36 0 0 Z M11 3 C10.67 3.66 10.34 4.32 10 5 C10.99 5 11.98 5 13 5 C13 4.34 13 3.68 13 3 C12.34 3 11.68 3 11 3 Z M7 5 C7 8.96 7 12.92 7 17 C7.33 17 7.66 17 8 17 C8 13.04 8 9.08 8 5 C7.67 5 7.34 5 7 5 Z M10 7 C10 7.66 10 8.32 10 9 C10.99 9 11.98 9 13 9 C13 8.34 13 7.68 13 7 C12.01 7 11.02 7 10 7 Z M10 11 C11.485 11.99 11.485 11.99 13 13 C13 12.34 13 11.68 13 11 C12.01 11 11.02 11 10 11 Z " fill="#383083" transform="translate(191,261)"/>
</svg>
